<mxfile host="app.diagrams.net" modified="2021-12-18T08:46:39.700Z" agent="5.0 (Windows NT 10.0; Win64; x64) AppleWebKit/537.36 (KHTML, like Gecko) Chrome/96.0.4664.110 Safari/537.36" etag="Uy6a-Ocjk5ldAc4U32yg" version="16.0.0" type="github">
  <diagram name="Page-1" id="edf60f1a-56cd-e834-aa8a-f176f3a09ee4">
    <mxGraphModel dx="700" dy="752" grid="1" gridSize="10" guides="1" tooltips="1" connect="1" arrows="1" fold="1" page="1" pageScale="1" pageWidth="1100" pageHeight="850" background="none" math="0" shadow="0">
      <root>
        <mxCell id="0" />
        <mxCell id="1" parent="0" />
        <mxCell id="C74ALDFxTHfo4ZXI62PK-13" value="" style="edgeStyle=orthogonalEdgeStyle;rounded=0;orthogonalLoop=1;jettySize=auto;html=1;entryX=0.5;entryY=0;entryDx=0;entryDy=0;" edge="1" parent="1" source="C74ALDFxTHfo4ZXI62PK-1" target="C74ALDFxTHfo4ZXI62PK-2">
          <mxGeometry relative="1" as="geometry" />
        </mxCell>
        <mxCell id="C74ALDFxTHfo4ZXI62PK-1" value="Начало" style="ellipse;whiteSpace=wrap;html=1;" vertex="1" parent="1">
          <mxGeometry x="310" y="30" width="80" height="40" as="geometry" />
        </mxCell>
        <mxCell id="C74ALDFxTHfo4ZXI62PK-14" value="" style="edgeStyle=orthogonalEdgeStyle;rounded=0;orthogonalLoop=1;jettySize=auto;html=1;" edge="1" parent="1" source="C74ALDFxTHfo4ZXI62PK-2" target="C74ALDFxTHfo4ZXI62PK-4">
          <mxGeometry relative="1" as="geometry" />
        </mxCell>
        <mxCell id="C74ALDFxTHfo4ZXI62PK-2" value="&lt;span style=&quot;font-size: 9.5pt ; line-height: 107% ; font-family: &amp;#34;consolas&amp;#34;&quot;&gt;cin &amp;gt;&amp;gt;&amp;nbsp;&lt;span style=&quot;font-size: 9.5pt ; line-height: 107% ; font-family: &amp;#34;consolas&amp;#34;&quot;&gt;k&lt;/span&gt;;&lt;/span&gt;" style="shape=parallelogram;perimeter=parallelogramPerimeter;whiteSpace=wrap;html=1;fixedSize=1;" vertex="1" parent="1">
          <mxGeometry x="290" y="90" width="120" height="40" as="geometry" />
        </mxCell>
        <mxCell id="C74ALDFxTHfo4ZXI62PK-16" value="" style="edgeStyle=orthogonalEdgeStyle;rounded=0;orthogonalLoop=1;jettySize=auto;html=1;" edge="1" parent="1" source="C74ALDFxTHfo4ZXI62PK-3" target="C74ALDFxTHfo4ZXI62PK-5">
          <mxGeometry relative="1" as="geometry">
            <Array as="points">
              <mxPoint x="350" y="285" />
            </Array>
          </mxGeometry>
        </mxCell>
        <mxCell id="C74ALDFxTHfo4ZXI62PK-19" value="" style="edgeStyle=orthogonalEdgeStyle;rounded=0;orthogonalLoop=1;jettySize=auto;html=1;" edge="1" parent="1" source="C74ALDFxTHfo4ZXI62PK-3" target="C74ALDFxTHfo4ZXI62PK-10">
          <mxGeometry relative="1" as="geometry" />
        </mxCell>
        <mxCell id="C74ALDFxTHfo4ZXI62PK-3" value="&lt;span lang=&quot;EN-US&quot; style=&quot;font-size: 9.5pt ; line-height: 107% ; font-family: &amp;#34;consolas&amp;#34;&quot;&gt;x &amp;lt;= 10;&amp;nbsp;&lt;/span&gt;" style="rhombus;whiteSpace=wrap;html=1;" vertex="1" parent="1">
          <mxGeometry x="305" y="200" width="90" height="80" as="geometry" />
        </mxCell>
        <mxCell id="C74ALDFxTHfo4ZXI62PK-15" value="" style="edgeStyle=orthogonalEdgeStyle;rounded=0;orthogonalLoop=1;jettySize=auto;html=1;" edge="1" parent="1" source="C74ALDFxTHfo4ZXI62PK-4" target="C74ALDFxTHfo4ZXI62PK-3">
          <mxGeometry relative="1" as="geometry" />
        </mxCell>
        <mxCell id="C74ALDFxTHfo4ZXI62PK-4" value="&lt;span lang=&quot;EN-US&quot; style=&quot;font-size: 9.5pt ; line-height: 107% ; font-family: &amp;#34;consolas&amp;#34;&quot;&gt;x = 0;&lt;/span&gt;" style="rounded=0;whiteSpace=wrap;html=1;" vertex="1" parent="1">
          <mxGeometry x="312.5" y="150" width="75" height="30" as="geometry" />
        </mxCell>
        <mxCell id="C74ALDFxTHfo4ZXI62PK-17" value="" style="edgeStyle=orthogonalEdgeStyle;rounded=0;orthogonalLoop=1;jettySize=auto;html=1;entryX=0.5;entryY=0;entryDx=0;entryDy=0;" edge="1" parent="1" source="C74ALDFxTHfo4ZXI62PK-5" target="C74ALDFxTHfo4ZXI62PK-6">
          <mxGeometry relative="1" as="geometry" />
        </mxCell>
        <mxCell id="C74ALDFxTHfo4ZXI62PK-5" value="&lt;span lang=&quot;EN-US&quot; style=&quot;font-size: 9.5pt ; line-height: 107% ; font-family: &amp;#34;consolas&amp;#34; ; color: black&quot;&gt;x++&lt;/span&gt;" style="rounded=0;whiteSpace=wrap;html=1;" vertex="1" parent="1">
          <mxGeometry x="315" y="310" width="70" height="30" as="geometry" />
        </mxCell>
        <mxCell id="C74ALDFxTHfo4ZXI62PK-23" value="" style="edgeStyle=orthogonalEdgeStyle;rounded=0;orthogonalLoop=1;jettySize=auto;html=1;" edge="1" parent="1" source="C74ALDFxTHfo4ZXI62PK-6" target="C74ALDFxTHfo4ZXI62PK-7">
          <mxGeometry relative="1" as="geometry" />
        </mxCell>
        <mxCell id="C74ALDFxTHfo4ZXI62PK-6" value="&lt;span lang=&quot;EN-US&quot; style=&quot;font-size: 9.5pt ; line-height: 107% ; font-family: &amp;#34;consolas&amp;#34; ; color: black&quot;&gt;summ =&amp;nbsp;&lt;span style=&quot;font-size: 9.5pt ; line-height: 107% ; font-family: &amp;#34;consolas&amp;#34;&quot;&gt;k&lt;/span&gt;*x;&lt;/span&gt;" style="rounded=0;whiteSpace=wrap;html=1;" vertex="1" parent="1">
          <mxGeometry x="315" y="370" width="70" height="40" as="geometry" />
        </mxCell>
        <mxCell id="C74ALDFxTHfo4ZXI62PK-26" style="edgeStyle=orthogonalEdgeStyle;rounded=0;orthogonalLoop=1;jettySize=auto;html=1;" edge="1" parent="1" source="C74ALDFxTHfo4ZXI62PK-7">
          <mxGeometry relative="1" as="geometry">
            <mxPoint x="400" y="240" as="targetPoint" />
            <Array as="points">
              <mxPoint x="480" y="490" />
              <mxPoint x="480" y="240" />
            </Array>
          </mxGeometry>
        </mxCell>
        <mxCell id="C74ALDFxTHfo4ZXI62PK-7" value="&lt;span lang=&quot;EN-US&quot; style=&quot;font-size: 9.5pt ; line-height: 107% ; font-family: &amp;#34;consolas&amp;#34; ; color: black&quot;&gt;cout &amp;lt;&amp;lt;&amp;nbsp;&lt;span style=&quot;font-size: 9.5pt ; line-height: 107% ; font-family: &amp;#34;consolas&amp;#34;&quot;&gt;k&lt;/span&gt;&amp;lt;&amp;lt; &lt;/span&gt;&lt;span lang=&quot;EN-US&quot; style=&quot;font-size: 9.5pt ; line-height: 107% ; font-family: &amp;#34;consolas&amp;#34; ; color: #a31515&quot;&gt;&quot; * &quot;&lt;/span&gt;&lt;span lang=&quot;EN-US&quot; style=&quot;font-size: 9.5pt ; line-height: 107% ; font-family: &amp;#34;consolas&amp;#34; ; color: black&quot;&gt;&lt;br&gt;&amp;lt;&amp;lt; x &amp;lt;&amp;lt; &lt;/span&gt;&lt;span lang=&quot;EN-US&quot; style=&quot;font-size: 9.5pt ; line-height: 107% ; font-family: &amp;#34;consolas&amp;#34; ; color: #a31515&quot;&gt;&quot; = &quot;&lt;/span&gt;&lt;span lang=&quot;EN-US&quot; style=&quot;font-size: 9.5pt ; line-height: 107% ; font-family: &amp;#34;consolas&amp;#34; ; color: black&quot;&gt; &amp;lt;&amp;lt; summ&amp;lt;&amp;lt; &lt;/span&gt;&lt;span lang=&quot;EN-US&quot; style=&quot;font-size: 9.5pt ; line-height: 107% ; font-family: &amp;#34;consolas&amp;#34; ; color: #a31515&quot;&gt;&quot;\n&quot;&lt;/span&gt;&lt;span lang=&quot;EN-US&quot; style=&quot;font-size: 9.5pt ; line-height: 107% ; font-family: &amp;#34;consolas&amp;#34; ; color: black&quot;&gt;;&lt;/span&gt;" style="shape=parallelogram;perimeter=parallelogramPerimeter;whiteSpace=wrap;html=1;fixedSize=1;" vertex="1" parent="1">
          <mxGeometry x="255" y="460" width="190" height="60" as="geometry" />
        </mxCell>
        <mxCell id="C74ALDFxTHfo4ZXI62PK-10" value="Конец" style="ellipse;whiteSpace=wrap;html=1;" vertex="1" parent="1">
          <mxGeometry x="140" y="220" width="80" height="40" as="geometry" />
        </mxCell>
      </root>
    </mxGraphModel>
  </diagram>
</mxfile>
